<?xml version="1.0" standalone="no"?>
<!DOCTYPE svg PUBLIC "-//W3C//DTD SVG 20010904//EN"
 "http://www.w3.org/TR/2001/REC-SVG-20010904/DTD/svg10.dtd">
<svg version="1.0" xmlns="http://www.w3.org/2000/svg"
 width="624.000000pt" height="502.000000pt" viewBox="0 0 624.000000 502.000000"
 preserveAspectRatio="xMidYMid meet">
<metadata>
Created by potrace 1.13, written by Peter Selinger 2001-2015
</metadata>
<g transform="translate(0.000000,502.000000) scale(0.100000,-0.100000)"
fill="#FFFFFF" stroke="none">
<path d="M1450 4905 c-333 -46 -637 -189 -866 -408 -197 -188 -305 -370 -371
-625 -25 -96 -28 -124 -28 -272 0 -148 3 -176 28 -272 66 -255 174 -437 371
-625 465 -445 1208 -551 1812 -258 276 134 519 368 643 620 68 138 134 365
118 407 -6 18 -10 4 -32 -107 -46 -244 -203 -508 -407 -685 -273 -237 -604
-364 -981 -377 -191 -7 -293 4 -467 47 -437 108 -811 408 -970 778 -76 177
-95 275 -94 487 1 149 4 182 26 265 128 474 522 842 1038 970 167 42 275 53
457 48 l159 -4 84 -49 c283 -166 357 -289 455 -754 41 -195 70 -251 167 -323
66 -50 117 -76 243 -123 55 -20 102 -38 103 -40 10 -9 -187 -302 -261 -388
l-32 -39 -110 129 c-152 178 -316 339 -403 397 -102 67 -255 145 -392 199
-297 118 -611 160 -1024 137 -122 -7 -222 -13 -224 -15 -1 -1 141 -5 315 -8
360 -7 423 -13 615 -62 336 -86 591 -212 827 -410 92 -77 381 -370 381 -385 0
-6 -51 -61 -113 -123 -116 -116 -311 -272 -328 -262 -5 4 -9 16 -9 28 -1 71
-81 161 -174 196 -133 49 -211 56 -641 53 -791 -4 -925 17 -1040 166 -24 31
-51 66 -60 77 -9 11 -2 -8 15 -43 40 -82 86 -132 157 -170 143 -75 225 -84
813 -87 517 -2 555 -5 707 -56 79 -26 147 -83 176 -148 24 -55 30 -49 -138
-132 -191 -94 -378 -147 -670 -193 -16 -3 18 -3 76 -1 192 8 466 77 663 169
44 20 81 36 84 36 2 0 2 -35 -1 -77 -7 -82 1 -69 23 39 11 56 12 57 88 106
138 88 282 215 386 342 l29 35 71 -75 c74 -79 72 -73 -8 23 -54 65 -55 55 7
154 18 28 44 66 59 85 14 18 57 92 94 163 37 72 68 131 69 133 2 2 38 -6 81
-17 43 -11 80 -19 82 -17 2 2 -29 16 -68 32 -39 15 -73 31 -75 35 -3 4 6 32
20 63 35 79 31 82 -11 9 -19 -35 -37 -63 -39 -63 -8 0 -235 100 -292 128 -90
46 -150 127 -187 252 -9 30 -30 134 -46 230 -34 200 -50 261 -92 344 -47 93
-117 155 -249 221 -101 50 -109 56 -69 50 79 -12 284 -84 382 -134 369 -187
615 -480 715 -850 20 -74 27 -129 30 -240 4 -104 8 -139 16 -126 13 25 3 220
-18 315 -98 464 -453 841 -945 1004 -242 80 -503 105 -750 71z"/>
<path d="M3965 2203 c-300 -39 -512 -133 -693 -307 -112 -108 -212 -273 -237
-391 -6 -29 -5 -29 10 5 9 19 18 43 20 52 7 33 75 159 114 211 122 163 295
284 507 356 91 31 195 53 144 30 -137 -59 -198 -107 -241 -191 -18 -34 -41
-135 -69 -293 -14 -79 -46 -159 -81 -200 -20 -23 -109 -71 -194 -105 -11 -4
-33 -13 -48 -19 -40 -16 -43 -15 -61 22 -14 25 -16 26 -11 7 12 -47 10 -52
-32 -68 -63 -25 -62 -32 2 -16 31 8 58 14 60 12 1 -2 22 -41 45 -87 24 -46 55
-98 70 -115 14 -17 38 -51 54 -75 27 -42 27 -43 9 -65 -10 -11 -25 -30 -32
-41 -7 -11 2 -3 21 19 l35 39 79 -82 c67 -71 238 -201 264 -201 5 0 16 -28 24
-62 l16 -63 -6 53 c-6 50 1 62 22 43 9 -8 163 -69 194 -77 8 -2 40 -10 70 -18
72 -19 111 -25 195 -31 69 -4 68 -4 -40 19 -60 12 -146 35 -190 51 -76 26
-234 97 -248 111 -9 10 17 55 50 86 79 73 177 88 596 88 425 0 516 13 610 84
28 21 98 126 84 126 -2 0 -18 -20 -36 -45 -41 -57 -120 -99 -218 -114 -43 -7
-220 -11 -445 -11 -293 0 -390 -3 -453 -15 -134 -26 -196 -68 -211 -144 -4
-17 -10 -31 -14 -31 -16 0 -167 118 -240 188 l-75 71 120 119 c66 65 158 146
205 181 170 126 462 242 675 266 33 4 69 9 80 11 11 2 99 7 195 11 l175 8
-100 7 c-161 13 -474 -15 -567 -51 -13 -5 -26 -9 -31 -9 -66 -5 -331 -127
-423 -195 -54 -40 -188 -171 -292 -287 l-40 -45 -24 26 c-46 50 -193 259 -186
264 2 1 28 10 58 20 103 34 178 73 223 117 45 45 62 83 86 198 19 89 42 171
68 243 38 104 140 205 280 276 39 19 55 21 210 18 173 -3 198 -7 358 -59 321
-105 563 -344 641 -633 25 -93 30 -238 10 -313 -18 -73 -20 -85 -7 -78 19 12
34 140 28 245 -11 215 -97 394 -268 556 -83 78 -151 126 -254 178 -180 90
-463 143 -640 120z"/>
<path d="M3014 1403 c-9 -85 1 -221 22 -298 20 -75 81 -199 132 -267 50 -68
172 -183 242 -229 137 -91 282 -147 464 -179 139 -25 253 -25 392 0 270 48
461 146 630 322 82 86 146 182 184 278 33 84 18 68 -31 -32 -119 -248 -314
-413 -597 -508 -140 -47 -226 -60 -387 -60 -156 0 -225 11 -372 59 -216 71
-390 191 -514 356 -36 48 -106 178 -115 213 -2 9 -11 42 -20 72 -20 69 -29
231 -16 288 5 23 6 44 2 47 -5 3 -12 -25 -16 -62z"/>
</g>
</svg>
